<?xml version="1.0" encoding="UTF-8" standalone="no"?>
<!DOCTYPE svg PUBLIC "-//W3C//DTD SVG 1.1//EN"
 "http://www.w3.org/Graphics/SVG/1.1/DTD/svg11.dtd">
<!-- Generated by graphviz version 2.42.3 (20191010.1750)
 -->
<!-- Title: dag Pages: 1 -->
<svg width="321pt" height="422pt"
 viewBox="0.00 0.00 320.99 422.20" xmlns="http://www.w3.org/2000/svg" xmlns:xlink="http://www.w3.org/1999/xlink">
<g id="graph0" class="graph" transform="scale(1 1) rotate(0) translate(4 418.2)">
<title>dag</title>
<polygon fill="white" stroke="transparent" points="-4,4 -4,-418.2 316.99,-418.2 316.99,4 -4,4"/>
<!-- p0 -->
<g id="node1" class="node">
<title>p0</title>
<ellipse fill="black" stroke="black" cx="141.99" cy="-395.6" rx="3.6" ry="3.6"/>
<text text-anchor="middle" x="88.39" y="-403" font-family="Times,serif" font-size="14.00">Channel.fromPath</text>
</g>
<!-- p3 -->
<g id="node2" class="node">
<title>p3</title>
<ellipse fill="none" stroke="black" cx="141.99" cy="-323" rx="126.18" ry="18"/>
<text text-anchor="middle" x="141.99" y="-319.3" font-family="Times,serif" font-size="14.00">countAndPlot_wf:jellyfishCount</text>
</g>
<!-- p0&#45;&gt;p3 -->
<g id="edge1" class="edge">
<title>p0&#45;&gt;p3</title>
<path fill="none" stroke="black" d="M141.99,-391.92C141.99,-385.25 141.99,-367.3 141.99,-351.53"/>
<polygon fill="black" stroke="black" points="145.49,-351.13 141.99,-341.13 138.49,-351.13 145.49,-351.13"/>
<text text-anchor="middle" x="156.49" y="-362.8" font-family="Times,serif" font-size="14.00">reads</text>
</g>
<!-- p4 -->
<g id="node5" class="node">
<title>p4</title>
<ellipse fill="none" stroke="black" cx="141.99" cy="-250.5" rx="3.5" ry="3.5"/>
<text text-anchor="middle" x="119.99" y="-257.8" font-family="Times,serif" font-size="14.00">collect</text>
</g>
<!-- p3&#45;&gt;p4 -->
<g id="edge4" class="edge">
<title>p3&#45;&gt;p4</title>
<path fill="none" stroke="black" d="M141.99,-304.93C141.99,-292.38 141.99,-275.59 141.99,-264.2"/>
<polygon fill="black" stroke="black" points="145.49,-264.16 141.99,-254.16 138.49,-264.16 145.49,-264.16"/>
</g>
<!-- p1 -->
<g id="node3" class="node">
<title>p1</title>
<ellipse fill="black" stroke="black" cx="10.99" cy="-395.6" rx="3.6" ry="3.6"/>
</g>
<!-- p1&#45;&gt;p3 -->
<g id="edge2" class="edge">
<title>p1&#45;&gt;p3</title>
<path fill="none" stroke="black" d="M13.73,-393.13C25.01,-387.04 68.91,-363.39 102.23,-345.43"/>
<polygon fill="black" stroke="black" points="104.18,-348.36 111.32,-340.53 100.85,-342.19 104.18,-348.36"/>
<text text-anchor="middle" x="95.49" y="-362.8" font-family="Times,serif" font-size="14.00">kmerK</text>
</g>
<!-- p5 -->
<g id="node6" class="node">
<title>p5</title>
<ellipse fill="none" stroke="black" cx="141.99" cy="-192" rx="128.08" ry="18"/>
<text text-anchor="middle" x="141.99" y="-188.3" font-family="Times,serif" font-size="14.00">countAndPlot_wf:jellyfishMerge</text>
</g>
<!-- p1&#45;&gt;p5 -->
<g id="edge6" class="edge">
<title>p1&#45;&gt;p5</title>
<path fill="none" stroke="black" d="M10.02,-391.93C6.09,-380.69 -7.71,-336.29 6.99,-305 26.04,-264.44 67.8,-233.5 99.87,-214.52"/>
<polygon fill="black" stroke="black" points="101.7,-217.51 108.63,-209.49 98.21,-211.44 101.7,-217.51"/>
<text text-anchor="middle" x="47.49" y="-275.8" font-family="Times,serif" font-size="14.00">kmerK</text>
</g>
<!-- p2 -->
<g id="node4" class="node">
<title>p2</title>
<ellipse fill="black" stroke="black" cx="254.99" cy="-395.6" rx="3.6" ry="3.6"/>
</g>
<!-- p2&#45;&gt;p3 -->
<g id="edge3" class="edge">
<title>p2&#45;&gt;p3</title>
<path fill="none" stroke="black" d="M252.2,-392.85C241.95,-386.46 205.58,-363.73 177.39,-346.12"/>
<polygon fill="black" stroke="black" points="178.91,-342.94 168.57,-340.61 175.2,-348.88 178.91,-342.94"/>
<text text-anchor="middle" x="244.49" y="-362.8" font-family="Times,serif" font-size="14.00">maxCov</text>
</g>
<!-- p2&#45;&gt;p5 -->
<g id="edge7" class="edge">
<title>p2&#45;&gt;p5</title>
<path fill="none" stroke="black" d="M257.2,-392.7C260.93,-389.34 268.43,-381.96 271.99,-374 284.53,-345.93 290.06,-332.83 276.99,-305 257.94,-264.44 216.18,-233.5 184.11,-214.52"/>
<polygon fill="black" stroke="black" points="185.77,-211.44 175.35,-209.49 182.28,-217.51 185.77,-211.44"/>
<text text-anchor="middle" x="289.49" y="-275.8" font-family="Times,serif" font-size="14.00">maxCov</text>
</g>
<!-- p4&#45;&gt;p5 -->
<g id="edge5" class="edge">
<title>p4&#45;&gt;p5</title>
<path fill="none" stroke="black" d="M141.99,-246.77C141.99,-241.83 141.99,-230.9 141.99,-220.17"/>
<polygon fill="black" stroke="black" points="145.49,-220.15 141.99,-210.15 138.49,-220.15 145.49,-220.15"/>
</g>
<!-- p6 -->
<g id="node7" class="node">
<title>p6</title>
<ellipse fill="none" stroke="black" cx="141.99" cy="-105" rx="123.48" ry="18"/>
<text text-anchor="middle" x="141.99" y="-101.3" font-family="Times,serif" font-size="14.00">countAndPlot_wf:jellyfishHisto</text>
</g>
<!-- p5&#45;&gt;p6 -->
<g id="edge8" class="edge">
<title>p5&#45;&gt;p6</title>
<path fill="none" stroke="black" d="M109.22,-174.42C96.49,-165.57 86.37,-153.86 92.99,-141 95.23,-136.64 98.3,-132.7 101.81,-129.18"/>
<polygon fill="black" stroke="black" points="104.24,-131.71 109.53,-122.53 99.67,-126.41 104.24,-131.71"/>
<text text-anchor="middle" x="106.49" y="-144.8" font-family="Times,serif" font-size="14.00">theK</text>
</g>
<!-- p5&#45;&gt;p6 -->
<g id="edge9" class="edge">
<title>p5&#45;&gt;p6</title>
<path fill="none" stroke="black" d="M141.99,-173.8C141.99,-162.16 141.99,-146.55 141.99,-133.24"/>
<polygon fill="black" stroke="black" points="145.49,-133.18 141.99,-123.18 138.49,-133.18 145.49,-133.18"/>
<text text-anchor="middle" x="181.49" y="-144.8" font-family="Times,serif" font-size="14.00">maxKmerCov</text>
</g>
<!-- p5&#45;&gt;p6 -->
<g id="edge10" class="edge">
<title>p5&#45;&gt;p6</title>
<path fill="none" stroke="black" d="M199.33,-175.84C208.3,-170.95 216.43,-164.5 221.99,-156 230.3,-143.29 222.09,-133.22 208.24,-125.56"/>
<polygon fill="black" stroke="black" points="209.51,-122.28 198.98,-121.09 206.47,-128.59 209.51,-122.28"/>
</g>
<!-- p7 -->
<g id="node8" class="node">
<title>p7</title>
<ellipse fill="none" stroke="black" cx="141.99" cy="-18" rx="129.98" ry="18"/>
<text text-anchor="middle" x="141.99" y="-14.3" font-family="Times,serif" font-size="14.00">countAndPlot_wf:genomeScope2</text>
</g>
<!-- p6&#45;&gt;p7 -->
<g id="edge11" class="edge">
<title>p6&#45;&gt;p7</title>
<path fill="none" stroke="black" d="M109.22,-87.42C96.49,-78.57 86.37,-66.86 92.99,-54 95.23,-49.64 98.3,-45.7 101.81,-42.18"/>
<polygon fill="black" stroke="black" points="104.24,-44.71 109.53,-35.53 99.67,-39.41 104.24,-44.71"/>
<text text-anchor="middle" x="106.49" y="-57.8" font-family="Times,serif" font-size="14.00">theK</text>
</g>
<!-- p6&#45;&gt;p7 -->
<g id="edge12" class="edge">
<title>p6&#45;&gt;p7</title>
<path fill="none" stroke="black" d="M141.99,-86.8C141.99,-75.16 141.99,-59.55 141.99,-46.24"/>
<polygon fill="black" stroke="black" points="145.49,-46.18 141.99,-36.18 138.49,-46.18 145.49,-46.18"/>
<text text-anchor="middle" x="181.49" y="-57.8" font-family="Times,serif" font-size="14.00">maxKmerCov</text>
</g>
<!-- p6&#45;&gt;p7 -->
<g id="edge13" class="edge">
<title>p6&#45;&gt;p7</title>
<path fill="none" stroke="black" d="M199.33,-88.84C208.3,-83.95 216.43,-77.5 221.99,-69 230.27,-56.34 222.17,-46.31 208.42,-38.66"/>
<polygon fill="black" stroke="black" points="209.76,-35.42 199.24,-34.2 206.7,-41.71 209.76,-35.42"/>
</g>
</g>
</svg>
